<svg width="186" height="65" viewBox="0 0 186 65" fill="none" xmlns="http://www.w3.org/2000/svg">
<path d="M0.52 52.568C0.776 51.0747 1.07467 49.5387 1.416 47.96C1.75733 46.424 2.184 44.696 2.696 42.776C3.25067 40.8133 3.912 38.552 4.68 35.992C5.448 33.432 6.408 30.4027 7.56 26.904C6.87733 26.9467 6.17333 27.0107 5.448 27.096C4.76533 27.1813 4.06133 27.2667 3.336 27.352C3.37867 26.2853 3.86933 25.4533 4.808 24.856C5.78933 24.216 7.06933 23.7467 8.648 23.448C8.94667 22.552 9.24533 21.6347 9.544 20.696C9.88533 19.7147 10.2267 18.712 10.568 17.688C10.9093 16.6213 11.272 15.5547 11.656 14.488C12.04 13.3787 12.424 12.2267 12.808 11.032C13.2347 9.83733 13.6613 8.62133 14.088 7.384C14.2587 6.91466 14.4507 6.33866 14.664 5.656C14.8773 4.93066 14.984 4.248 14.984 3.608C14.984 3.26666 14.92 3.032 14.792 2.904C14.7067 2.776 14.472 2.712 14.088 2.712C13.064 2.712 12.0613 3.13866 11.08 3.992C10.1413 4.80266 9.288 5.848 8.52 7.128C7.79467 8.408 7.21867 9.73066 6.792 11.096C6.36533 12.4613 6.152 13.6773 6.152 14.744C6.152 15.128 6.17333 15.512 6.216 15.896C6.30133 16.28 6.38667 16.6213 6.472 16.92C5.064 16.92 4.06133 16.5787 3.464 15.896C2.90933 15.1707 2.632 14.296 2.632 13.272C2.632 11.8213 3.05867 10.3707 3.912 8.92C4.76533 7.46933 5.85333 6.14667 7.176 4.952C8.54133 3.71466 9.94933 2.73333 11.4 2.008C12.8933 1.28267 14.2373 0.919998 15.432 0.919998C16.584 0.919998 17.352 1.24 17.736 1.88C18.1627 2.52 18.376 3.224 18.376 3.992C18.376 4.46133 18.312 4.93067 18.184 5.4C18.0987 5.86933 17.992 6.31733 17.864 6.744L12.872 23C13.4693 22.9573 14.0667 22.936 14.664 22.936C15.304 22.8933 15.944 22.872 16.584 22.872C18.5893 22.872 20.488 22.936 22.28 23.064C24.1147 23.1493 25.8427 23.2773 27.464 23.448C28.3173 20.7173 29.1493 18.0293 29.96 15.384C30.8133 12.7387 31.5813 10.4347 32.264 8.472C32.9893 6.46666 33.544 5.05866 33.928 4.248C34.0987 3.90666 34.3333 3.48 34.632 2.968C34.9307 2.456 35.3147 1.98666 35.784 1.56C36.296 1.13333 36.8507 0.919998 37.448 0.919998C36.8507 2.49866 36.168 4.52533 35.4 7C34.632 9.432 33.8427 12.0987 33.032 15C32.264 17.9013 31.496 20.8027 30.728 23.704C31.5813 23.7467 32.392 23.8107 33.16 23.896C33.9707 23.9387 34.76 23.96 35.528 23.96C34.5893 24.9413 33.672 25.5387 32.776 25.752C31.88 25.9227 31.0053 26.008 30.152 26.008C29.768 27.5867 29.4053 29.1227 29.064 30.616C28.7227 32.0667 28.424 33.4533 28.168 34.776C27.4 38.4027 26.8453 41.496 26.504 44.056C26.2053 46.616 26.056 48.6853 26.056 50.264C26.056 50.776 26.056 51.2027 26.056 51.544C26.0987 51.928 26.1413 52.2693 26.184 52.568C24.52 52.3973 23.368 51.928 22.728 51.16C22.088 50.392 21.768 49.1973 21.768 47.576C21.768 46.4667 21.896 45.08 22.152 43.416C22.408 41.7093 22.792 39.8747 23.304 37.912C23.6453 36.632 24.1147 34.9467 24.712 32.856C25.3093 30.7227 25.9707 28.4613 26.696 26.072C24.0933 26.072 21.9173 26.0933 20.168 26.136C18.4187 26.1787 16.904 26.2213 15.624 26.264C14.344 26.3067 13.064 26.392 11.784 26.52C11.016 28.9947 10.248 31.448 9.48 33.88C8.712 36.312 8.008 38.552 7.368 40.6C6.728 42.6053 6.19467 44.312 5.768 45.72C5.34133 47.128 5.064 48.0453 4.936 48.472C4.50933 49.9227 3.82667 50.968 2.888 51.608C1.992 52.248 1.20267 52.568 0.52 52.568ZM41.595 50.264C39.5897 50.264 37.9897 49.816 36.795 48.92C35.643 48.0667 34.8323 47 34.363 45.72C33.851 44.44 33.595 43.16 33.595 41.88C33.595 40.6 33.7657 39.6187 34.107 38.936C34.4483 38.2533 34.8537 37.7413 35.323 37.4C35.835 37.0587 36.3043 36.8027 36.731 36.632C37.2003 36.4613 37.5203 36.2907 37.691 36.12C38.971 34.712 40.1443 33.24 41.211 31.704C42.2777 30.168 43.2163 28.5467 44.027 26.84V26.072C44.027 24.4933 44.283 23.384 44.795 22.744C45.3497 22.0613 45.9257 21.72 46.523 21.72C46.8643 21.72 47.1203 21.8053 47.291 21.976C47.4617 22.1467 47.547 22.3387 47.547 22.552C47.547 22.7653 47.483 23.1067 47.355 23.576C47.227 24.0453 47.163 24.6427 47.163 25.368C47.163 26.776 47.4403 28.312 47.995 29.976C48.5497 31.5973 49.1043 33.3253 49.659 35.16C50.2137 36.952 50.491 38.8293 50.491 40.792C50.491 41.3467 50.4483 41.9013 50.363 42.456C50.3203 42.968 50.235 43.4587 50.107 43.928C51.6003 43.672 53.0083 43.0107 54.331 41.944C55.6537 40.8347 56.9337 39.0853 58.171 36.696L58.747 37.336C57.9363 39.6827 56.7203 41.4747 55.099 42.712C53.4777 43.9067 51.707 44.6533 49.787 44.952C49.1043 46.7867 48.0163 48.1307 46.523 48.984C45.0723 49.8373 43.4297 50.264 41.595 50.264ZM41.723 48.024C42.235 48.024 42.9177 47.8533 43.771 47.512C44.6243 47.1707 45.2857 46.296 45.755 44.888C43.963 44.5467 42.363 43.8427 40.955 42.776C39.5897 41.7093 38.5657 40.6427 37.883 39.576C36.9443 39.6187 36.475 40.3653 36.475 41.816C36.475 43.352 36.923 44.7813 37.819 46.104C38.7577 47.384 40.059 48.024 41.723 48.024ZM46.075 43.864C46.1603 43.4373 46.2243 42.9893 46.267 42.52C46.3097 42.0507 46.331 41.496 46.331 40.856C46.331 38.8507 46.075 36.8667 45.563 34.904C45.0937 32.8987 44.6883 31.0213 44.347 29.272C43.3657 30.8933 42.3203 32.4507 41.211 33.944C40.1443 35.3947 39.1203 36.6107 38.139 37.592C38.779 38.9573 39.7603 40.2373 41.083 41.432C42.4483 42.6267 44.1123 43.4373 46.075 43.864ZM61.5455 48.664C59.8815 48.664 58.6442 48.1307 57.8335 47.064C57.0228 46.04 56.6175 44.7813 56.6175 43.288C56.6175 42.3067 56.7882 41.0693 57.1295 39.576C57.5135 38.0827 58.0042 36.5253 58.6015 34.904C59.1988 33.24 59.8815 31.6827 60.6495 30.232C61.4602 28.7813 62.3135 27.608 63.2095 26.712C64.1055 25.7733 64.9802 25.304 65.8335 25.304C66.2175 25.304 66.5375 25.432 66.7935 25.688C67.0922 25.9013 67.2415 26.2427 67.2415 26.712C67.2415 27.224 66.9002 28.056 66.2175 29.208C65.5775 30.36 64.8095 31.6827 63.9135 33.176C63.0175 34.6693 62.2282 36.248 61.5455 37.912C60.9055 39.5333 60.5855 41.0907 60.5855 42.584C60.5855 44.12 60.8415 45.144 61.3535 45.656C61.8655 46.168 62.6548 46.424 63.7215 46.424C65.1722 46.424 66.7082 45.6987 68.3295 44.248C69.9935 42.7973 71.7428 40.2587 73.5775 36.632L74.1535 37.272C72.9162 40.9413 71.1242 43.7573 68.7775 45.72C66.4735 47.6827 64.0628 48.664 61.5455 48.664ZM69.2255 19.352C68.5428 19.352 67.9242 19.1813 67.3695 18.84C66.8575 18.4987 66.6015 17.9653 66.6015 17.24C66.6015 16.344 67.1135 15.576 68.1375 14.936C69.2042 14.2533 70.2495 13.912 71.2735 13.912C71.9135 13.912 72.4255 14.0613 72.8095 14.36C73.1935 14.6587 73.3855 15.1707 73.3855 15.896C73.3855 16.7067 72.9375 17.496 72.0415 18.264C71.1882 18.9893 70.2495 19.352 69.2255 19.352ZM93.047 48.28C91.5537 48.28 90.423 47.896 89.655 47.128C88.9297 46.36 88.567 45.3787 88.567 44.184C88.567 43.288 88.7163 42.3493 89.015 41.368C89.3563 40.3867 89.6763 39.384 89.975 38.36C90.2737 37.2933 90.423 36.2693 90.423 35.288C90.423 34.0933 90.167 33.2827 89.655 32.856C89.1857 32.3867 88.5883 32.152 87.863 32.152C86.5403 32.152 85.1963 32.7067 83.831 33.816C82.4657 34.8827 81.143 36.2693 79.863 37.976C78.583 39.64 77.3883 41.368 76.279 43.16C75.1697 44.952 74.1883 46.552 73.335 47.96C72.6523 47.96 72.0123 47.832 71.415 47.576C70.775 47.3627 70.2843 47.0213 69.943 46.552C69.943 46.3387 70.1777 45.6773 70.647 44.568C71.0737 43.4587 71.5857 42.0933 72.183 40.472C72.7803 38.8507 73.3137 37.1867 73.783 35.48C74.2523 33.7733 74.487 32.216 74.487 30.808C74.743 30.5093 75.1483 30.2107 75.703 29.912C76.2577 29.6133 76.8337 29.464 77.431 29.464C78.583 29.464 79.159 30.0187 79.159 31.128C79.159 31.8107 78.967 32.9627 78.583 34.584C78.199 36.1627 77.7083 37.8267 77.111 39.576C78.263 37.8267 79.543 36.0987 80.951 34.392C82.4017 32.6427 83.9377 31.192 85.559 30.04C87.1803 28.888 88.8017 28.312 90.423 28.312C92.087 28.312 93.2817 28.9093 94.007 30.104C94.775 31.2987 95.159 32.6213 95.159 34.072C95.159 35.3947 94.9457 36.632 94.519 37.784C94.0923 38.8933 93.6443 39.9813 93.175 41.048C92.7483 42.072 92.535 43.1173 92.535 44.184C92.535 45.08 92.7057 45.72 93.047 46.104C93.431 46.4453 93.9003 46.616 94.455 46.616C95.5217 46.616 96.5883 46.1253 97.655 45.144C98.7217 44.12 99.7457 42.84 100.727 41.304C101.751 39.768 102.647 38.2107 103.415 36.632L104.119 37.464C103.223 39.5547 102.22 41.4107 101.111 43.032C100.002 44.6533 98.7857 45.9333 97.463 46.872C96.1403 47.8107 94.6683 48.28 93.047 48.28ZM104.94 64.92C103.873 64.92 102.934 64.6213 102.123 64.024C101.313 63.4693 100.907 62.6373 100.907 61.528C100.907 60.1627 101.249 58.9467 101.931 57.88C102.614 56.8133 103.532 55.832 104.684 54.936C105.836 54.04 107.158 53.1867 108.652 52.376C110.145 51.5653 111.702 50.7547 113.324 49.944C113.921 48.3653 114.518 46.616 115.116 44.696C115.756 42.7333 116.353 40.5787 116.908 38.232C115.542 40.4507 114.07 42.3707 112.492 43.992C110.956 45.5707 109.313 46.36 107.564 46.36C106.753 46.36 105.942 46.1893 105.132 45.848C104.364 45.464 103.724 44.888 103.212 44.12C102.7 43.352 102.444 42.3707 102.444 41.176C102.444 39.9813 102.636 38.5947 103.02 37.016C103.446 35.4373 103.958 33.9013 104.556 32.408C105.153 30.9147 105.772 29.6773 106.411 28.696C107.052 27.7147 107.606 27.224 108.076 27.224C108.246 27.224 108.545 27.288 108.972 27.416C109.441 27.544 109.868 27.736 110.252 27.992C110.678 28.2053 110.892 28.44 110.892 28.696C110.508 29.2507 110.081 30.04 109.612 31.064C109.142 32.088 108.673 33.24 108.204 34.52C107.777 35.7573 107.414 36.9733 107.116 38.168C106.817 39.3627 106.668 40.3867 106.668 41.24C106.668 42.008 106.838 42.6267 107.18 43.096C107.521 43.5653 108.118 43.8 108.972 43.8C109.782 43.8 110.678 43.416 111.66 42.648C112.684 41.8373 113.686 40.8133 114.668 39.576C115.692 38.3387 116.63 37.016 117.484 35.608C117.612 35.1387 117.718 34.6693 117.804 34.2C117.932 33.688 118.038 33.176 118.124 32.664C118.252 32.0667 118.55 31.384 119.02 30.616C119.532 29.8053 120.321 29.4 121.388 29.4C121.601 29.4 121.814 29.4213 122.028 29.464C122.241 29.464 122.476 29.5067 122.732 29.592C122.732 30.2747 122.518 31.5547 122.092 33.432C121.708 35.2667 121.132 37.4213 120.364 39.896C119.638 42.3707 118.764 44.9093 117.74 47.512C119.745 46.744 121.708 45.4853 123.628 43.736C125.548 41.944 127.105 39.576 128.3 36.632L129.132 37.272C128.492 39.32 127.51 41.112 126.188 42.648C124.908 44.1413 123.457 45.4427 121.836 46.552C120.214 47.6187 118.614 48.5147 117.036 49.24C115.926 51.9707 114.71 54.5307 113.388 56.92C112.108 59.3093 110.742 61.2293 109.292 62.68C107.884 64.1733 106.433 64.92 104.94 64.92ZM104.62 62.872C105.26 62.872 106.326 62.0187 107.82 60.312C109.356 58.648 110.977 55.704 112.684 51.48C110.934 52.4187 109.313 53.336 107.82 54.232C106.326 55.1707 105.132 56.1733 104.236 57.24C103.34 58.3067 102.892 59.544 102.892 60.952C102.892 61.2933 103.02 61.6987 103.276 62.168C103.532 62.6373 103.98 62.872 104.62 62.872ZM130.135 50.008C128.812 50.008 127.703 49.56 126.806 48.664C125.868 47.8107 125.398 46.488 125.398 44.696C125.398 43.16 125.74 41.5173 126.422 39.768C127.105 37.976 128.044 36.2267 129.239 34.52C130.433 32.7707 131.777 31.192 133.271 29.784C134.807 28.3333 136.407 27.1813 138.071 26.328C139.777 25.4747 141.463 25.048 143.127 25.048C144.791 25.048 146.177 25.496 147.287 26.392C148.396 27.2453 148.951 28.3973 148.951 29.848C148.951 30.9147 148.652 31.64 148.055 32.024C147.5 32.408 146.753 32.6 145.815 32.6C145.9 32.2587 145.964 31.896 146.007 31.512C146.092 31.0853 146.135 30.7013 146.135 30.36C146.135 29.3787 145.9 28.5467 145.431 27.864C144.961 27.1387 144.151 26.776 142.999 26.776C141.804 26.776 140.588 27.2027 139.351 28.056C138.113 28.8667 136.919 29.976 135.767 31.384C134.615 32.7493 133.591 34.2427 132.695 35.864C131.799 37.4853 131.095 39.0853 130.583 40.664C130.071 42.2427 129.815 43.6507 129.815 44.888C129.815 46.552 130.391 47.384 131.543 47.384C132.524 47.384 133.591 46.936 134.743 46.04C135.895 45.1013 137.068 43.928 138.263 42.52C139.5 41.0693 140.673 39.576 141.783 38.04C142.892 36.504 143.873 35.096 144.727 33.816C144.897 33.56 145.004 33.432 145.047 33.432C145.303 33.4747 145.623 33.56 146.007 33.688C146.433 33.816 146.796 33.9867 147.095 34.2C147.393 34.4133 147.543 34.6907 147.543 35.032C147.543 35.416 147.351 35.9493 146.967 36.632C146.583 37.272 146.156 38.0187 145.687 38.872C145.217 39.7253 144.791 40.6 144.407 41.496C144.023 42.3493 143.831 43.16 143.831 43.928C143.831 44.568 144.001 45.208 144.343 45.848C144.684 46.4453 145.239 46.744 146.007 46.744C147.159 46.744 148.673 45.912 150.551 44.248C152.428 42.5413 154.327 40.0027 156.247 36.632L156.887 37.272C155.991 39.576 154.839 41.6027 153.431 43.352C152.023 45.1013 150.508 46.4667 148.887 47.448C147.308 48.4293 145.751 48.92 144.215 48.92C142.636 48.92 141.463 48.4507 140.695 47.512C139.969 46.5733 139.607 45.5493 139.607 44.44C139.607 44.184 139.628 43.9067 139.671 43.608C139.713 43.2667 139.756 42.9253 139.799 42.584C137.964 45.0587 136.279 46.9147 134.743 48.152C133.249 49.3893 131.713 50.008 130.135 50.008ZM159.738 48.92C158.287 48.92 157.114 48.28 156.218 47C155.364 45.6773 154.938 44.1627 154.938 42.456C154.938 41.2187 155.13 39.7893 155.514 38.168C155.94 36.5467 156.452 34.9467 157.049 33.368C157.647 31.7893 158.266 30.488 158.906 29.464C159.546 28.44 160.1 27.928 160.57 27.928C160.783 27.928 161.146 28.056 161.658 28.312C162.17 28.5253 162.596 28.824 162.938 29.208C162.468 29.9333 161.892 31.0427 161.21 32.536C160.527 34.0293 159.93 35.6293 159.418 37.336C158.906 39.0427 158.65 40.6213 158.65 42.072C158.65 42.4133 158.692 42.9467 158.778 43.672C158.863 44.3547 159.076 44.9733 159.418 45.528C159.759 46.0827 160.271 46.36 160.954 46.36C161.764 46.36 162.596 45.9547 163.45 45.144C164.303 44.2907 165.156 43.2027 166.01 41.88C166.906 40.5573 167.759 39.128 168.57 37.592C169.38 36.056 170.127 34.584 170.81 33.176C171.535 31.768 172.132 30.5947 172.602 29.656C172.858 29.6987 173.22 29.784 173.69 29.912C174.202 30.04 174.65 30.2107 175.034 30.424C175.46 30.6373 175.674 30.936 175.674 31.32C175.674 31.4907 175.46 32.0667 175.034 33.048C174.607 33.9867 174.095 35.16 173.498 36.568C172.943 37.9333 172.452 39.32 172.026 40.728C171.599 42.136 171.385 43.3733 171.385 44.44C171.385 45.208 171.535 45.8267 171.833 46.296C172.175 46.7653 172.73 47 173.498 47C174.394 47 175.482 46.5947 176.762 45.784C178.042 44.9733 179.343 43.8 180.666 42.264C181.988 40.6853 183.162 38.808 184.186 36.632L185.018 37.208C184.122 39.512 182.948 41.56 181.498 43.352C180.047 45.1013 178.511 46.4667 176.89 47.448C175.268 48.4293 173.69 48.92 172.154 48.92C171.044 48.92 170.148 48.7067 169.466 48.28C168.826 47.8533 168.356 47.2773 168.058 46.552C167.802 45.8267 167.674 45.0373 167.674 44.184C167.674 43.672 167.716 43.16 167.802 42.648C167.887 42.0933 167.994 41.5387 168.122 40.984C167.354 42.392 166.522 43.7147 165.626 44.952C164.73 46.1467 163.791 47.1067 162.81 47.832C161.828 48.5573 160.804 48.92 159.738 48.92Z" fill="black"/>
</svg>
